Coordinates
version=1
nRows=11
nColumns=36
inDegrees=yes

Units are S.I. units (second, meters, Newtons, ...)
If the header above contains a line with 'inDegrees', this indicates whether rotational values are in degrees (yes) or radians (no).

endheader
time	pelvis_tilt	pelvis_list	pelvis_rotation	pelvis_tx	pelvis_ty	pelvis_tz	hip_flexion_r	hip_adduction_r	hip_rotation_r	knee_angle_r	knee_angle_r_beta	ankle_angle_r	subtalar_angle_r	mtp_angle_r	hip_flexion_l	hip_adduction_l	hip_rotation_l	knee_angle_l	knee_angle_l_beta	ankle_angle_l	subtalar_angle_l	mtp_angle_l	lumbar_extension	lumbar_bending	lumbar_rotation	arm_flex_r	arm_add_r	arm_rot_r	elbow_flex_r	pro_sup_r	arm_flex_l	arm_add_l	arm_rot_l	elbow_flex_l	pro_sup_l
      0.00000000	     -6.07888703	     -1.56866556	     -2.37170666	     -0.16526407	      0.93528414	     -0.59093967	      4.20892749	     -4.11470166	     -6.00410677	      1.29631214	      0.02262491	      4.06020197	     -0.18351404	     -5.42186645	      3.10421869	     -8.51641535	     -6.71968791	      1.26942944	      0.02215572	      5.20180116	      2.04054108	     -5.42186645	      3.91681074	      1.01070780	     -0.97218725	     -3.50574029	     -4.58842479	     -6.22974118	     31.34712796	     95.43456963	     -5.40069070	     -4.17228229	    -12.63604673	     33.56673609	     93.59128027
      0.01000000	     -6.03207065	     -1.58956155	     -2.35461899	     -0.16519155	      0.93531161	     -0.59094609	      4.16571831	     -4.10763983	     -6.14289186	      1.32864566	      0.02318924	      4.22278978	      0.10535352	     -6.36436711	      3.05146398	     -8.54041513	     -6.76279890	      1.27029309	      0.02217080	      5.26289118	      2.18828125	     -6.36436711	      3.84157988	      1.01315837	     -1.02092819	     -3.53403360	     -4.49023598	     -7.04550789	     31.31808622	     98.97433139	     -5.47338894	     -3.99751857	    -13.92175244	     33.40616918	     98.89391417
      0.02000000	     -6.04913664	     -1.59299616	     -2.33844476	     -0.16521442	      0.93528763	     -0.59094630	      4.17710817	     -4.10382802	     -6.13667452	      1.31775654	      0.02299919	      4.22426839	      0.08204674	     -6.92533826	      3.06646286	     -8.53927384	     -6.64196399	      1.25139570	      0.02184098	      5.20854144	      1.97178549	     -6.92533826	      3.85540620	      1.00985208	     -1.02343053	     -3.54533480	     -4.47589880	     -7.08429919	     31.34012343	     98.64633178	     -5.46319844	     -3.99483826	    -13.94612408	     33.43428106	     98.77814804
      0.03000000	     -6.06636642	     -1.58264861	     -2.33749510	     -0.16519038	      0.93524380	     -0.59093304	      4.20070633	     -4.11028868	     -6.17775967	      1.32898651	      0.02319519	      4.24853815	      0.12778507	     -7.23181851	      3.08890328	     -8.53318565	     -6.69189236	      1.26171653	      0.02202111	      5.23580055	      2.08997919	     -7.23181851	      3.87941180	      0.99951035	     -1.00801564	     -3.55794906	     -4.47996152	     -7.05331458	     31.30401377	     98.86647476	     -5.45141208	     -4.03646527	    -13.79640573	     33.39492448	     98.81758152
      0.04000000	     -6.07011243	     -1.59315335	     -2.33064309	     -0.16518870	      0.93523494	     -0.59089487	      4.21079349	     -4.09020574	     -6.22162242	      1.33957187	      0.02337994	      4.22716799	      0.11678834	     -7.38679914	      3.09665726	     -8.55040752	     -6.73388242	      1.26212996	      0.02202832	      5.28645315	      2.23029318	     -7.38679914	      3.87822949	      1.00594293	     -0.99597409	     -3.56184662	     -4.48942604	     -6.99158993	     31.30781103	     98.79480756	     -5.42484213	     -4.06963448	    -13.66980467	     33.32648269	     98.89800108
      0.05000000	     -6.07003352	     -1.59248773	     -2.34291157	     -0.16517050	      0.93522785	     -0.59087802	      4.22035719	     -4.09177694	     -6.24551491	      1.35753107	      0.02369339	      4.28078317	      0.16285610	     -7.44349782	      3.09264002	     -8.55106289	     -6.76812147	      1.26819333	      0.02213415	      5.26459950	      2.21536626	     -7.44349782	      3.88285607	      1.00290543	     -1.03353462	     -3.53027916	     -4.49981166	     -6.88166334	     31.25797612	     98.79261048	     -5.46797591	     -4.03272338	    -13.87055663	     33.43933276	     98.83511787
      0.06000000	     -6.06964969	     -1.60258280	     -2.35829250	     -0.16516759	      0.93521479	     -0.59083221	      4.22448789	     -4.07871587	     -6.22414507	      1.35932215	      0.02372465	      4.26556763	      0.15396931	     -7.47631454	      3.08520408	     -8.56495339	     -6.78029280	      1.26736820	      0.02211975	      5.32135547	      2.24488732	     -7.47631454	      3.87911603	      1.01694105	     -0.97658247	     -3.55868316	     -4.49293280	     -6.97991929	     31.29120922	     98.78185571	     -5.42855241	     -4.04542160	    -13.81281698	     33.40223226	     98.97212027
      0.07000000	     -6.10167906	     -1.60916320	     -2.38536338	     -0.16519437	      0.93520278	     -0.59075681	      4.24299922	     -4.05242304	     -6.03103073	      1.31224999	      0.02290308	      4.08833742	     -0.18853108	     -7.48961260	      3.11112609	     -8.57298550	     -6.79603972	      1.25101619	      0.02183435	      5.22378452	      2.10850123	     -7.48961260	      3.90888522	      1.01856181	     -1.01412203	     -3.49862849	     -4.50107390	     -6.80728478	     31.23412253	     98.47376036	     -5.47928284	     -3.99892484	    -14.02908061	     33.55067509	     98.42733201
      0.08000000	     -6.09766374	     -1.61516581	     -2.37139687	     -0.16515738	      0.93521505	     -0.59075040	      4.24290799	     -4.04802467	     -6.14726176	      1.33212087	      0.02324990	      4.18644317	      0.00634350	     -7.49567547	      3.10445199	     -8.58498065	     -6.80381955	      1.25171515	      0.02184655	      5.28697779	      2.23327512	     -7.49567547	      3.91740735	      1.03542110	     -0.95945867	     -3.56094019	     -4.49342825	     -6.93809154	     31.26763850	     98.84307234	     -5.41242999	     -4.07589701	    -13.70540547	     33.40162130	     98.70259253
      0.09000000	     -6.07917629	     -1.61495444	     -2.36841579	     -0.16512979	      0.93524614	     -0.59073141	      4.23400651	     -4.05401308	     -6.21411073	      1.35631044	      0.02367208	      4.26052352	      0.13981288	     -7.49774427	      3.08504135	     -8.58472184	     -6.79355276	      1.25566750	      0.02191553	      5.28976992	      2.18155669	     -7.49774427	      3.89421054	      1.04046618	     -0.96619247	     -3.54255026	     -4.47571895	     -6.99865549	     31.24025836	     98.67596229	     -5.41464297	     -4.05208847	    -13.80981153	     33.49005960	     98.46216558
      0.10000000	     -5.87654465	     -1.65853293	     -2.42714236	     -0.16491307	      0.93547506	     -0.59058812	      3.99703549	     -4.00069768	     -6.30423000	      1.32447982	      0.02311653	      4.09559757	      0.13632529	     -7.49812401	      2.92459861	     -8.69232453	     -7.72808496	      1.41625177	      0.02471826	      5.96206511	      3.99217084	     -7.49812401	      3.66574668	      1.10097081	     -0.77185477	     -3.70792965	     -4.48788573	     -6.69244206	     31.99274505	     92.55348325	     -5.33240813	     -4.11430332	    -12.88083736	     34.07425362	     92.03281860
